<svg id="visual" viewBox="0 0 900 600" width="900" height="600" xmlns="http://www.w3.org/2000/svg" xmlns:xlink="http://www.w3.org/1999/xlink" version="1.1"><g stroke-width="1" stroke-linejoin="bevel"><path d="M430.5 315L430.6 350L458.5 345Z" fill="#205a7a" stroke="#205a7a"></path><path d="M430.6 350L466.4 374L458.5 345Z" fill="#081a28" stroke="#081a28"></path><path d="M466.4 374L481.5 364L458.5 345Z" fill="#205a7a" stroke="#205a7a"></path><path d="M488.5 246L420.5 255L430.5 315Z" fill="#0c2435" stroke="#0c2435"></path><path d="M430.5 315L382.6 300L430.6 350Z" fill="#1d4e6b" stroke="#1d4e6b"></path><path d="M430.6 350L471.5 404L466.4 374Z" fill="#112e42" stroke="#112e42"></path><path d="M466.4 374L471.5 404L481.5 364Z" fill="#277297" stroke="#277297"></path><path d="M407.6 442L471.5 404L430.6 350Z" fill="#1d4e6b" stroke="#1d4e6b"></path><path d="M488.5 246L430.5 315L458.5 345Z" fill="#246688" stroke="#246688"></path><path d="M430.5 315L420.5 255L382.6 300Z" fill="#15384f" stroke="#15384f"></path><path d="M578.4 399L523.4 341L572.3 419Z" fill="#112e42" stroke="#112e42"></path><path d="M481.5 364L523.4 341L458.5 345Z" fill="#205a7a" stroke="#205a7a"></path><path d="M307.6 306L360.6 314L307.6 250Z" fill="#081a28" stroke="#081a28"></path><path d="M382.6 300L360.6 314L430.6 350Z" fill="#277297" stroke="#277297"></path><path d="M488.5 246L419.5 250L420.5 255Z" fill="#1d4e6b" stroke="#1d4e6b"></path><path d="M420.5 255L419.5 250L382.6 300Z" fill="#19435d" stroke="#19435d"></path><path d="M538.5 313L488.5 246L458.5 345Z" fill="#00101c" stroke="#00101c"></path><path d="M523.4 341L538.5 313L458.5 345Z" fill="#00101c" stroke="#00101c"></path><path d="M538.5 313L519.4 257L488.5 246Z" fill="#00101c" stroke="#00101c"></path><path d="M519.4 257L487.5 230L488.5 246Z" fill="#1d4e6b" stroke="#1d4e6b"></path><path d="M488.5 246L487.5 230L419.5 250Z" fill="#297ea6" stroke="#297ea6"></path><path d="M375.5 433L407.6 442L430.6 350Z" fill="#081a28" stroke="#081a28"></path><path d="M578.4 399L560.4 344L523.4 341Z" fill="#297ea6" stroke="#297ea6"></path><path d="M523.4 341L560.4 344L538.5 313Z" fill="#15384f" stroke="#15384f"></path><path d="M574.4 239L535.4 212L519.4 257Z" fill="#277297" stroke="#277297"></path><path d="M328.6 396L375.5 433L430.6 350Z" fill="#0c2435" stroke="#0c2435"></path><path d="M423.5 473L456.5 456L407.6 442Z" fill="#297ea6" stroke="#297ea6"></path><path d="M407.6 442L456.5 456L471.5 404Z" fill="#15384f" stroke="#15384f"></path><path d="M578.4 399L591.3 351L560.4 344Z" fill="#081a28" stroke="#081a28"></path><path d="M360.6 314L328.6 396L430.6 350Z" fill="#15384f" stroke="#15384f"></path><path d="M307.6 250L360.6 314L382.6 300Z" fill="#246688" stroke="#246688"></path><path d="M360.6 314L307.6 306L328.6 396Z" fill="#246688" stroke="#246688"></path><path d="M336.6 501L409.6 466L375.5 433Z" fill="#19435d" stroke="#19435d"></path><path d="M375.5 433L409.6 466L407.6 442Z" fill="#205a7a" stroke="#205a7a"></path><path d="M409.6 466L423.5 473L407.6 442Z" fill="#205a7a" stroke="#205a7a"></path><path d="M523.4 341L481.5 364L572.3 419Z" fill="#112e42" stroke="#112e42"></path><path d="M560.4 344L596.3 309L538.5 313Z" fill="#112e42" stroke="#112e42"></path><path d="M572.3 419L471.5 404L551.4 484Z" fill="#246688" stroke="#246688"></path><path d="M572.3 419L481.5 364L471.5 404Z" fill="#081a28" stroke="#081a28"></path><path d="M519.4 257L535.4 212L487.5 230Z" fill="#15384f" stroke="#15384f"></path><path d="M436.6 164L350.6 209L419.5 250Z" fill="#1d4e6b" stroke="#1d4e6b"></path><path d="M574.4 239L519.4 257L538.5 313Z" fill="#205a7a" stroke="#205a7a"></path><path d="M436.6 164L419.5 250L487.5 230Z" fill="#081a28" stroke="#081a28"></path><path d="M419.5 250L350.6 209L382.6 300Z" fill="#205a7a" stroke="#205a7a"></path><path d="M591.3 351L596.3 309L560.4 344Z" fill="#19435d" stroke="#19435d"></path><path d="M514.5 495L471.5 404L456.5 456Z" fill="#246688" stroke="#246688"></path><path d="M327.6 220L307.6 250L382.6 300Z" fill="#246688" stroke="#246688"></path><path d="M350.6 209L327.6 220L382.6 300Z" fill="#112e42" stroke="#112e42"></path><path d="M596.3 309L574.4 239L538.5 313Z" fill="#297ea6" stroke="#297ea6"></path><path d="M452.5 156L436.6 164L487.5 230Z" fill="#19435d" stroke="#19435d"></path><path d="M350.6 209L297.7 189L327.6 220Z" fill="#19435d" stroke="#19435d"></path><path d="M490.5 148L452.5 156L487.5 230Z" fill="#15384f" stroke="#15384f"></path><path d="M423.5 473L514.5 495L456.5 456Z" fill="#246688" stroke="#246688"></path><path d="M297.7 189L275.7 260L307.6 250Z" fill="#112e42" stroke="#112e42"></path><path d="M307.6 250L275.7 260L307.6 306Z" fill="#297ea6" stroke="#297ea6"></path><path d="M216.8 357L275.7 446L328.6 396Z" fill="#0c2435" stroke="#0c2435"></path><path d="M514.5 495L551.4 484L471.5 404Z" fill="#081a28" stroke="#081a28"></path><path d="M578.4 399L627.4 361L591.3 351Z" fill="#15384f" stroke="#15384f"></path><path d="M591.3 351L635.4 350L596.3 309Z" fill="#205a7a" stroke="#205a7a"></path><path d="M596.3 309L620.2 272L574.4 239Z" fill="#00101c" stroke="#00101c"></path><path d="M672.2 377L627.4 361L578.4 399Z" fill="#1d4e6b" stroke="#1d4e6b"></path><path d="M672.2 377L578.4 399L684.2 447Z" fill="#0c2435" stroke="#0c2435"></path><path d="M628.4 275L620.2 272L596.3 309Z" fill="#081a28" stroke="#081a28"></path><path d="M535.4 212L490.5 148L487.5 230Z" fill="#277297" stroke="#277297"></path><path d="M539.4 137L490.5 148L535.4 212Z" fill="#00101c" stroke="#00101c"></path><path d="M571.3 183L535.4 212L573.4 184Z" fill="#1d4e6b" stroke="#1d4e6b"></path><path d="M672.2 377L635.4 350L627.4 361Z" fill="#277297" stroke="#277297"></path><path d="M627.4 361L635.4 350L591.3 351Z" fill="#112e42" stroke="#112e42"></path><path d="M659.2 302L628.4 275L596.3 309Z" fill="#0c2435" stroke="#0c2435"></path><path d="M573.4 184L535.4 212L574.4 239Z" fill="#1d4e6b" stroke="#1d4e6b"></path><path d="M573.4 184L574.4 239L651.3 246Z" fill="#112e42" stroke="#112e42"></path><path d="M651.3 246L574.4 239L620.2 272Z" fill="#246688" stroke="#246688"></path><path d="M275.7 446L375.5 433L328.6 396Z" fill="#19435d" stroke="#19435d"></path><path d="M275.7 446L336.6 501L375.5 433Z" fill="#0c2435" stroke="#0c2435"></path><path d="M409.6 466L396.5 550L423.5 473Z" fill="#112e42" stroke="#112e42"></path><path d="M473.5 600L535.5 510L514.5 495Z" fill="#297ea6" stroke="#297ea6"></path><path d="M514.5 495L535.5 510L551.4 484Z" fill="#00101c" stroke="#00101c"></path><path d="M551.4 484L594.4 481L572.3 419Z" fill="#081a28" stroke="#081a28"></path><path d="M396.5 550L514.5 495L423.5 473Z" fill="#19435d" stroke="#19435d"></path><path d="M222.7 338L328.6 396L307.6 306Z" fill="#081a28" stroke="#081a28"></path><path d="M327.6 220L297.7 189L307.6 250Z" fill="#00101c" stroke="#00101c"></path><path d="M341.6 145L297.7 189L350.6 209Z" fill="#112e42" stroke="#112e42"></path><path d="M348.6 144L350.6 209L436.6 164Z" fill="#297ea6" stroke="#297ea6"></path><path d="M297.7 189L249.8 255L275.7 260Z" fill="#205a7a" stroke="#205a7a"></path><path d="M275.7 260L222.7 338L307.6 306Z" fill="#0c2435" stroke="#0c2435"></path><path d="M324.6 118L348.6 144L375.6 93Z" fill="#15384f" stroke="#15384f"></path><path d="M375.6 93L348.6 144L436.6 164Z" fill="#1d4e6b" stroke="#1d4e6b"></path><path d="M348.6 144L341.6 145L350.6 209Z" fill="#112e42" stroke="#112e42"></path><path d="M593.4 547L594.4 481L551.4 484Z" fill="#205a7a" stroke="#205a7a"></path><path d="M275.7 446L310.6 506L336.6 501Z" fill="#15384f" stroke="#15384f"></path><path d="M336.6 501L396.5 550L409.6 466Z" fill="#277297" stroke="#277297"></path><path d="M564.4 138L539.4 137L571.3 183Z" fill="#081a28" stroke="#081a28"></path><path d="M571.3 183L539.4 137L535.4 212Z" fill="#277297" stroke="#277297"></path><path d="M514.4 62L375.6 93L452.5 156Z" fill="#277297" stroke="#277297"></path><path d="M249.8 255L222.7 338L275.7 260Z" fill="#0c2435" stroke="#0c2435"></path><path d="M635.4 350L659.2 302L596.3 309Z" fill="#277297" stroke="#277297"></path><path d="M628.4 275L651.3 246L620.2 272Z" fill="#1d4e6b" stroke="#1d4e6b"></path><path d="M581.4 131L564.4 138L571.3 183Z" fill="#1d4e6b" stroke="#1d4e6b"></path><path d="M679.2 336L659.2 302L635.4 350Z" fill="#19435d" stroke="#19435d"></path><path d="M539.4 137L530.5 129L490.5 148Z" fill="#00101c" stroke="#00101c"></path><path d="M378.6 600L396.5 550L336.6 501Z" fill="#15384f" stroke="#15384f"></path><path d="M222.7 338L216.8 357L328.6 396Z" fill="#00101c" stroke="#00101c"></path><path d="M275.7 446L272.6 487L310.6 506Z" fill="#0c2435" stroke="#0c2435"></path><path d="M674.2 263L651.3 246L628.4 275Z" fill="#112e42" stroke="#112e42"></path><path d="M253.6 465L272.6 487L275.7 446Z" fill="#0c2435" stroke="#0c2435"></path><path d="M378.6 600L463.5 600L396.5 550Z" fill="#1d4e6b" stroke="#1d4e6b"></path><path d="M581.4 131L571.3 183L573.4 184Z" fill="#297ea6" stroke="#297ea6"></path><path d="M539.4 137L564.4 138L530.5 129Z" fill="#00101c" stroke="#00101c"></path><path d="M202.7 372L253.6 465L275.7 446Z" fill="#246688" stroke="#246688"></path><path d="M684.2 447L578.4 399L572.3 419Z" fill="#15384f" stroke="#15384f"></path><path d="M659.2 302L674.2 263L628.4 275Z" fill="#15384f" stroke="#15384f"></path><path d="M672.2 377L679.2 336L635.4 350Z" fill="#246688" stroke="#246688"></path><path d="M163.8 338L202.7 372L216.8 357Z" fill="#112e42" stroke="#112e42"></path><path d="M216.8 357L202.7 372L275.7 446Z" fill="#0c2435" stroke="#0c2435"></path><path d="M195.8 314L216.8 357L222.7 338Z" fill="#15384f" stroke="#15384f"></path><path d="M743.1 294L674.2 263L659.2 302Z" fill="#19435d" stroke="#19435d"></path><path d="M607.4 140L581.4 131L573.4 184Z" fill="#297ea6" stroke="#297ea6"></path><path d="M375.6 93L436.6 164L452.5 156Z" fill="#205a7a" stroke="#205a7a"></path><path d="M348.6 144L324.6 118L341.6 145Z" fill="#246688" stroke="#246688"></path><path d="M341.6 145L324.6 118L297.7 189Z" fill="#19435d" stroke="#19435d"></path><path d="M171.8 168L160.8 192L249.8 255Z" fill="#112e42" stroke="#112e42"></path><path d="M564.4 138L581.4 131L530.5 129Z" fill="#205a7a" stroke="#205a7a"></path><path d="M514.4 62L452.5 156L490.5 148Z" fill="#246688" stroke="#246688"></path><path d="M607.4 140L573.4 184L651.3 246Z" fill="#297ea6" stroke="#297ea6"></path><path d="M157.8 233L195.8 314L249.8 255Z" fill="#19435d" stroke="#19435d"></path><path d="M249.8 255L195.8 314L222.7 338Z" fill="#277297" stroke="#277297"></path><path d="M514.4 62L490.5 148L530.5 129Z" fill="#112e42" stroke="#112e42"></path><path d="M678.2 144L607.4 140L651.3 246Z" fill="#081a28" stroke="#081a28"></path><path d="M672.2 377L696.3 338L679.2 336Z" fill="#277297" stroke="#277297"></path><path d="M679.2 336L696.3 338L659.2 302Z" fill="#246688" stroke="#246688"></path><path d="M549.4 600L593.4 547L535.5 510Z" fill="#081a28" stroke="#081a28"></path><path d="M535.5 510L593.4 547L551.4 484Z" fill="#246688" stroke="#246688"></path><path d="M594.4 481L684.2 447L572.3 419Z" fill="#277297" stroke="#277297"></path><path d="M672.2 377L723.2 336L696.3 338Z" fill="#246688" stroke="#246688"></path><path d="M640.4 539L684.2 447L594.4 481Z" fill="#19435d" stroke="#19435d"></path><path d="M378.6 600L336.6 501L310.6 506Z" fill="#0c2435" stroke="#0c2435"></path><path d="M396.5 550L463.5 600L514.5 495Z" fill="#277297" stroke="#277297"></path><path d="M463.5 600L473.4 600L514.5 495Z" fill="#00101c" stroke="#00101c"></path><path d="M473.4 600L473.5 600L514.5 495Z" fill="#0c2435" stroke="#0c2435"></path><path d="M246.7 546L274.6 547L272.6 487Z" fill="#0c2435" stroke="#0c2435"></path><path d="M272.6 487L274.6 547L310.6 506Z" fill="#19435d" stroke="#19435d"></path><path d="M246.7 546L272.6 487L218.8 517Z" fill="#1d4e6b" stroke="#1d4e6b"></path><path d="M348.6 33L287.7 107L324.6 118Z" fill="#19435d" stroke="#19435d"></path><path d="M324.6 118L287.7 107L297.7 189Z" fill="#00101c" stroke="#00101c"></path><path d="M274.6 547L378.6 600L310.6 506Z" fill="#15384f" stroke="#15384f"></path><path d="M287.7 107L261.6 123L297.7 189Z" fill="#00101c" stroke="#00101c"></path><path d="M195.8 314L163.8 338L216.8 357Z" fill="#081a28" stroke="#081a28"></path><path d="M161.8 428L191.8 477L253.6 465Z" fill="#081a28" stroke="#081a28"></path><path d="M124.8 317L163.8 338L195.8 314Z" fill="#081a28" stroke="#081a28"></path><path d="M568.4 14L514.4 62L581.4 131Z" fill="#205a7a" stroke="#205a7a"></path><path d="M581.4 131L514.4 62L530.5 129Z" fill="#1d4e6b" stroke="#1d4e6b"></path><path d="M375.6 93L348.6 33L324.6 118Z" fill="#15384f" stroke="#15384f"></path><path d="M792.1 384L723.2 336L672.2 377Z" fill="#15384f" stroke="#15384f"></path><path d="M743.1 294L736.2 262L674.2 263Z" fill="#205a7a" stroke="#205a7a"></path><path d="M701.2 153L678.2 144L651.3 246Z" fill="#00101c" stroke="#00101c"></path><path d="M463.5 600L462.5 614L473.4 600Z" fill="#0c2435" stroke="#0c2435"></path><path d="M473.4 600L462.5 614L473.5 600Z" fill="#246688" stroke="#246688"></path><path d="M614.3 600L624.4 552L593.4 547Z" fill="#277297" stroke="#277297"></path><path d="M378.6 600L462.5 614L463.5 600Z" fill="#205a7a" stroke="#205a7a"></path><path d="M549.4 600L535.5 510L473.5 600Z" fill="#15384f" stroke="#15384f"></path><path d="M593.4 547L640.4 539L594.4 481Z" fill="#277297" stroke="#277297"></path><path d="M624.4 552L640.4 539L593.4 547Z" fill="#0c2435" stroke="#0c2435"></path><path d="M462.5 614L549.4 600L473.5 600Z" fill="#15384f" stroke="#15384f"></path><path d="M161.8 428L253.6 465L202.7 372Z" fill="#112e42" stroke="#112e42"></path><path d="M218.8 517L272.6 487L253.6 465Z" fill="#246688" stroke="#246688"></path><path d="M274.6 547L266.7 600L378.6 600Z" fill="#00101c" stroke="#00101c"></path><path d="M208.8 507L218.8 517L253.6 465Z" fill="#205a7a" stroke="#205a7a"></path><path d="M244.7 85L247.8 117L261.6 123Z" fill="#277297" stroke="#277297"></path><path d="M171.8 168L249.8 255L297.7 189Z" fill="#112e42" stroke="#112e42"></path><path d="M191.8 477L208.8 507L253.6 465Z" fill="#246688" stroke="#246688"></path><path d="M218.8 517L229.7 542L246.7 546Z" fill="#19435d" stroke="#19435d"></path><path d="M514.4 62L373.5 49L375.6 93Z" fill="#081a28" stroke="#081a28"></path><path d="M287.7 107L244.7 85L261.6 123Z" fill="#19435d" stroke="#19435d"></path><path d="M614.3 600L637.3 554L624.4 552Z" fill="#205a7a" stroke="#205a7a"></path><path d="M624.4 552L637.3 554L640.4 539Z" fill="#277297" stroke="#277297"></path><path d="M735.2 509L737.2 502L684.2 447Z" fill="#0c2435" stroke="#0c2435"></path><path d="M139.8 372L161.8 428L202.7 372Z" fill="#081a28" stroke="#081a28"></path><path d="M191.8 477L199.7 505L208.8 507Z" fill="#1d4e6b" stroke="#1d4e6b"></path><path d="M151.8 497L199.7 505L191.8 477Z" fill="#246688" stroke="#246688"></path><path d="M208.8 507L199.7 505L218.8 517Z" fill="#246688" stroke="#246688"></path><path d="M219.8 550L229.7 542L218.8 517Z" fill="#246688" stroke="#246688"></path><path d="M264.8 600L266.7 600L274.6 547Z" fill="#246688" stroke="#246688"></path><path d="M160.8 192L157.8 233L249.8 255Z" fill="#081a28" stroke="#081a28"></path><path d="M163.8 338L139.8 372L202.7 372Z" fill="#0c2435" stroke="#0c2435"></path><path d="M701.2 153L651.3 246L715.2 161Z" fill="#297ea6" stroke="#297ea6"></path><path d="M607.4 140L647.3 90L581.4 131Z" fill="#15384f" stroke="#15384f"></path><path d="M743.1 294L659.2 302L696.3 338Z" fill="#277297" stroke="#277297"></path><path d="M723.2 336L743.1 294L696.3 338Z" fill="#1d4e6b" stroke="#1d4e6b"></path><path d="M761.1 267L743.1 294L807.2 361Z" fill="#00101c" stroke="#00101c"></path><path d="M112.8 355L139.8 372L163.8 338Z" fill="#205a7a" stroke="#205a7a"></path><path d="M151.8 497L219.8 550L199.7 505Z" fill="#297ea6" stroke="#297ea6"></path><path d="M199.7 505L219.8 550L218.8 517Z" fill="#1d4e6b" stroke="#1d4e6b"></path><path d="M229.7 542L219.8 550L246.7 546Z" fill="#0c2435" stroke="#0c2435"></path><path d="M139.8 372L139.8 416L161.8 428Z" fill="#246688" stroke="#246688"></path><path d="M161.8 428L131.9 452L191.8 477Z" fill="#00101c" stroke="#00101c"></path><path d="M360.6 0L348.6 33L373.5 49Z" fill="#1d4e6b" stroke="#1d4e6b"></path><path d="M373.5 49L348.6 33L375.6 93Z" fill="#19435d" stroke="#19435d"></path><path d="M171.8 168L297.7 189L261.6 123Z" fill="#1d4e6b" stroke="#1d4e6b"></path><path d="M157.8 233L124.8 317L195.8 314Z" fill="#00101c" stroke="#00101c"></path><path d="M715.2 161L651.3 246L674.2 263Z" fill="#205a7a" stroke="#205a7a"></path><path d="M678.2 144L677.3 122L607.4 140Z" fill="#19435d" stroke="#19435d"></path><path d="M701.2 153L677.3 122L678.2 144Z" fill="#081a28" stroke="#081a28"></path><path d="M247.8 117L171.8 168L261.6 123Z" fill="#081a28" stroke="#081a28"></path><path d="M210.8 106L171.8 168L247.8 117Z" fill="#1d4e6b" stroke="#1d4e6b"></path><path d="M283.7 0L244.7 85L287.7 107Z" fill="#0c2435" stroke="#0c2435"></path><path d="M115.9 224L124.8 317L157.8 233Z" fill="#277297" stroke="#277297"></path><path d="M139.8 372L122.9 409L139.8 416Z" fill="#1d4e6b" stroke="#1d4e6b"></path><path d="M672.3 108L647.3 90L607.4 140Z" fill="#277297" stroke="#277297"></path><path d="M462.5 614L614.3 600L549.4 600Z" fill="#277297" stroke="#277297"></path><path d="M549.4 600L614.3 600L593.4 547Z" fill="#1d4e6b" stroke="#1d4e6b"></path><path d="M264.8 600L274.6 547L246.7 546Z" fill="#112e42" stroke="#112e42"></path><path d="M378.6 600L266.7 600L462.5 614Z" fill="#00101c" stroke="#00101c"></path><path d="M253.6 600L264.8 600L246.7 546Z" fill="#205a7a" stroke="#205a7a"></path><path d="M266.7 600L264.8 600L462.5 614Z" fill="#246688" stroke="#246688"></path><path d="M684.2 108L672.3 108L677.3 122Z" fill="#246688" stroke="#246688"></path><path d="M677.3 122L672.3 108L607.4 140Z" fill="#297ea6" stroke="#297ea6"></path><path d="M736.2 262L715.2 161L674.2 263Z" fill="#0c2435" stroke="#0c2435"></path><path d="M701.2 153L684.2 108L677.3 122Z" fill="#19435d" stroke="#19435d"></path><path d="M772.1 172L715.2 161L736.2 262Z" fill="#1d4e6b" stroke="#1d4e6b"></path><path d="M244.7 85L210.8 106L247.8 117Z" fill="#246688" stroke="#246688"></path><path d="M797.1 363L743.1 294L723.2 336Z" fill="#246688" stroke="#246688"></path><path d="M743.1 294L761.1 267L736.2 262Z" fill="#0c2435" stroke="#0c2435"></path><path d="M219.8 550L253.6 600L246.7 546Z" fill="#277297" stroke="#277297"></path><path d="M264.8 600L253.6 600L462.5 614Z" fill="#246688" stroke="#246688"></path><path d="M108.9 392L122.9 409L139.8 372Z" fill="#112e42" stroke="#112e42"></path><path d="M139.8 416L131.9 452L161.8 428Z" fill="#0c2435" stroke="#0c2435"></path><path d="M219.8 550L153.8 600L253.6 600Z" fill="#0c2435" stroke="#0c2435"></path><path d="M124.8 317L112.8 355L163.8 338Z" fill="#112e42" stroke="#112e42"></path><path d="M72.9 385L112.8 355L65.9 337Z" fill="#205a7a" stroke="#205a7a"></path><path d="M716.2 85L684.2 108L701.2 153Z" fill="#00101c" stroke="#00101c"></path><path d="M672.3 108L684.2 108L647.3 90Z" fill="#246688" stroke="#246688"></path><path d="M122.9 409L131.9 452L139.8 416Z" fill="#1d4e6b" stroke="#1d4e6b"></path><path d="M131.9 452L151.8 497L191.8 477Z" fill="#081a28" stroke="#081a28"></path><path d="M498.4 0L473.5 0L514.4 62Z" fill="#246688" stroke="#246688"></path><path d="M514.4 62L473.5 0L373.5 49Z" fill="#19435d" stroke="#19435d"></path><path d="M498.4 0L514.4 62L503.5 0Z" fill="#081a28" stroke="#081a28"></path><path d="M171.8 168L124.9 164L160.8 192Z" fill="#081a28" stroke="#081a28"></path><path d="M160.8 192L115.9 224L157.8 233Z" fill="#19435d" stroke="#19435d"></path><path d="M210.8 106L164.8 143L171.8 168Z" fill="#246688" stroke="#246688"></path><path d="M503.5 0L514.4 62L524.4 0Z" fill="#297ea6" stroke="#297ea6"></path><path d="M524.4 0L514.4 62L532.5 -1Z" fill="#15384f" stroke="#15384f"></path><path d="M112.8 355L108.9 392L139.8 372Z" fill="#297ea6" stroke="#297ea6"></path><path d="M122.9 409L72.9 385L131.9 452Z" fill="#205a7a" stroke="#205a7a"></path><path d="M735.2 509L684.2 447L640.4 539Z" fill="#1d4e6b" stroke="#1d4e6b"></path><path d="M684.2 447L792.1 384L672.2 377Z" fill="#1d4e6b" stroke="#1d4e6b"></path><path d="M735.2 509L728.1 558L739.2 525Z" fill="#205a7a" stroke="#205a7a"></path><path d="M372.5 -10L360.6 0L373.5 49Z" fill="#1d4e6b" stroke="#1d4e6b"></path><path d="M348.6 33L283.7 0L287.7 107Z" fill="#205a7a" stroke="#205a7a"></path><path d="M171.9 88L168.8 102L210.8 106Z" fill="#081a28" stroke="#081a28"></path><path d="M678.2 600L640.4 539L637.3 554Z" fill="#205a7a" stroke="#205a7a"></path><path d="M568.4 14L581.4 131L647.3 90Z" fill="#246688" stroke="#246688"></path><path d="M628.3 0L568.4 14L647.3 90Z" fill="#112e42" stroke="#112e42"></path><path d="M124.9 164L115.9 224L160.8 192Z" fill="#112e42" stroke="#112e42"></path><path d="M112.8 355L72.9 385L108.9 392Z" fill="#0c2435" stroke="#0c2435"></path><path d="M462.5 614L658.2 600L614.3 600Z" fill="#246688" stroke="#246688"></path><path d="M614.3 600L658.2 600L637.3 554Z" fill="#297ea6" stroke="#297ea6"></path><path d="M462.5 614L658.3 600L658.2 600Z" fill="#297ea6" stroke="#297ea6"></path><path d="M658.2 600L658.3 600L637.3 554Z" fill="#1d4e6b" stroke="#1d4e6b"></path><path d="M568.4 14L532.5 -1L514.4 62Z" fill="#277297" stroke="#277297"></path><path d="M524.4 0L532.5 -1L503.5 0Z" fill="#0c2435" stroke="#0c2435"></path><path d="M503.5 0L532.5 -1L498.4 0Z" fill="#1d4e6b" stroke="#1d4e6b"></path><path d="M498.4 0L372.5 -10L473.5 0Z" fill="#081a28" stroke="#081a28"></path><path d="M473.5 0L372.5 -10L373.5 49Z" fill="#0c2435" stroke="#0c2435"></path><path d="M532.5 -1L372.5 -10L498.4 0Z" fill="#246688" stroke="#246688"></path><path d="M360.6 0L328.6 0L348.6 33Z" fill="#297ea6" stroke="#297ea6"></path><path d="M372.5 -10L328.6 0L360.6 0Z" fill="#277297" stroke="#277297"></path><path d="M210.8 106L168.8 102L164.8 143Z" fill="#15384f" stroke="#15384f"></path><path d="M787.1 460L684.2 447L737.2 502Z" fill="#15384f" stroke="#15384f"></path><path d="M787.1 460L792.1 384L684.2 447Z" fill="#19435d" stroke="#19435d"></path><path d="M728.1 558L735.2 509L640.4 539Z" fill="#277297" stroke="#277297"></path><path d="M735.2 509L764.2 512L737.2 502Z" fill="#205a7a" stroke="#205a7a"></path><path d="M792.1 384L797.1 363L723.2 336Z" fill="#15384f" stroke="#15384f"></path><path d="M462.5 614L678.2 600L658.3 600Z" fill="#081a28" stroke="#081a28"></path><path d="M658.3 600L678.2 600L637.3 554Z" fill="#081a28" stroke="#081a28"></path><path d="M171.9 88L210.8 106L203.7 46Z" fill="#112e42" stroke="#112e42"></path><path d="M164.8 143L124.9 164L171.8 168Z" fill="#19435d" stroke="#19435d"></path><path d="M95.9 140L124.9 164L164.8 143Z" fill="#19435d" stroke="#19435d"></path><path d="M728.1 558L750.2 524L739.2 525Z" fill="#297ea6" stroke="#297ea6"></path><path d="M739.2 525L750.2 524L735.2 509Z" fill="#1d4e6b" stroke="#1d4e6b"></path><path d="M203.7 46L210.8 106L244.7 85Z" fill="#19435d" stroke="#19435d"></path><path d="M117.9 89L95.9 140L164.8 143Z" fill="#081a28" stroke="#081a28"></path><path d="M678.2 600L728.1 558L640.4 539Z" fill="#277297" stroke="#277297"></path><path d="M0 433L115.9 499L131.9 452Z" fill="#112e42" stroke="#112e42"></path><path d="M131.9 452L115.9 499L151.8 497Z" fill="#1d4e6b" stroke="#1d4e6b"></path><path d="M151.8 497L153.8 600L219.8 550Z" fill="#297ea6" stroke="#297ea6"></path><path d="M834.1 381L807.2 361L792.1 384Z" fill="#00101c" stroke="#00101c"></path><path d="M792.1 384L807.2 361L797.1 363Z" fill="#00101c" stroke="#00101c"></path><path d="M797.1 363L807.2 361L743.1 294Z" fill="#1d4e6b" stroke="#1d4e6b"></path><path d="M801.1 237L772.1 172L736.2 262Z" fill="#0c2435" stroke="#0c2435"></path><path d="M715.2 161L716.2 85L701.2 153Z" fill="#081a28" stroke="#081a28"></path><path d="M684.2 108L716.2 85L647.3 90Z" fill="#15384f" stroke="#15384f"></path><path d="M801.1 237L736.2 262L761.1 267Z" fill="#0c2435" stroke="#0c2435"></path><path d="M764.2 512L787.1 460L737.2 502Z" fill="#081a28" stroke="#081a28"></path><path d="M372.5 -10L283.7 0L328.6 0Z" fill="#277297" stroke="#277297"></path><path d="M328.6 0L283.7 0L348.6 33Z" fill="#15384f" stroke="#15384f"></path><path d="M786.1 600L764.2 512L750.2 524Z" fill="#00101c" stroke="#00101c"></path><path d="M750.2 524L764.2 512L735.2 509Z" fill="#00101c" stroke="#00101c"></path><path d="M770.2 110L716.2 85L715.2 161Z" fill="#1d4e6b" stroke="#1d4e6b"></path><path d="M678.2 600L704.2 595L728.1 558Z" fill="#246688" stroke="#246688"></path><path d="M728.1 558L786.1 600L750.2 524Z" fill="#19435d" stroke="#19435d"></path><path d="M847.1 265L801.1 237L761.1 267Z" fill="#19435d" stroke="#19435d"></path><path d="M268.8 0L203.7 46L244.7 85Z" fill="#19435d" stroke="#19435d"></path><path d="M65.9 337L112.8 355L124.8 317Z" fill="#0c2435" stroke="#0c2435"></path><path d="M108.9 392L72.9 385L122.9 409Z" fill="#00101c" stroke="#00101c"></path><path d="M65.9 337L124.8 317L56.9 298Z" fill="#0c2435" stroke="#0c2435"></path><path d="M372.5 -10L268.8 0L283.7 0Z" fill="#277297" stroke="#277297"></path><path d="M283.7 0L268.8 0L244.7 85Z" fill="#277297" stroke="#277297"></path><path d="M56.9 298L124.8 317L115.9 224Z" fill="#0c2435" stroke="#0c2435"></path><path d="M668.2 0L628.3 0L647.3 90Z" fill="#246688" stroke="#246688"></path><path d="M568.4 14L628.3 0L532.5 -1Z" fill="#00101c" stroke="#00101c"></path><path d="M532.5 -1L628.3 0L372.5 -10Z" fill="#205a7a" stroke="#205a7a"></path><path d="M40.9 209L56.9 298L115.9 224Z" fill="#112e42" stroke="#112e42"></path><path d="M65.9 337L30.9 331L72.9 385Z" fill="#297ea6" stroke="#297ea6"></path><path d="M772.1 172L770.2 110L715.2 161Z" fill="#0c2435" stroke="#0c2435"></path><path d="M801.1 237L803.1 179L772.1 172Z" fill="#277297" stroke="#277297"></path><path d="M847.1 265L803.1 179L801.1 237Z" fill="#112e42" stroke="#112e42"></path><path d="M104.9 600L153.8 600L115.9 499Z" fill="#205a7a" stroke="#205a7a"></path><path d="M115.9 499L153.8 600L151.8 497Z" fill="#00101c" stroke="#00101c"></path><path d="M253.6 600L75.9 610L462.5 614Z" fill="#277297" stroke="#277297"></path><path d="M849.1 399L834.1 381L792.1 384Z" fill="#205a7a" stroke="#205a7a"></path><path d="M807.2 361L847.1 265L761.1 267Z" fill="#205a7a" stroke="#205a7a"></path><path d="M849.1 399L792.1 384L787.1 460Z" fill="#297ea6" stroke="#297ea6"></path><path d="M117.9 89L164.8 143L168.8 102Z" fill="#0c2435" stroke="#0c2435"></path><path d="M124.9 164L84.9 148L115.9 224Z" fill="#205a7a" stroke="#205a7a"></path><path d="M117.9 89L168.8 102L171.9 88Z" fill="#081a28" stroke="#081a28"></path><path d="M803.1 179L770.2 110L772.1 172Z" fill="#246688" stroke="#246688"></path><path d="M716.2 85L668.2 0L647.3 90Z" fill="#277297" stroke="#277297"></path><path d="M66.9 97L84.9 148L95.9 140Z" fill="#297ea6" stroke="#297ea6"></path><path d="M95.9 140L84.9 148L124.9 164Z" fill="#00101c" stroke="#00101c"></path><path d="M729.1 0L668.2 0L716.2 85Z" fill="#081a28" stroke="#081a28"></path><path d="M628.3 0L668.2 0L372.5 -10Z" fill="#15384f" stroke="#15384f"></path><path d="M131.8 18L117.9 89L171.9 88Z" fill="#112e42" stroke="#112e42"></path><path d="M131.8 18L171.9 88L203.7 46Z" fill="#1d4e6b" stroke="#1d4e6b"></path><path d="M863.1 303L847.1 265L807.2 361Z" fill="#246688" stroke="#246688"></path><path d="M774.1 72L716.2 85L770.2 110Z" fill="#112e42" stroke="#112e42"></path><path d="M0 344L30.9 331L0 259Z" fill="#277297" stroke="#277297"></path><path d="M56.9 298L30.9 331L65.9 337Z" fill="#15384f" stroke="#15384f"></path><path d="M75.9 610L104.9 600L22.9 532Z" fill="#246688" stroke="#246688"></path><path d="M900 456L849.1 399L787.1 460Z" fill="#112e42" stroke="#112e42"></path><path d="M834.1 381L863.1 303L807.2 361Z" fill="#297ea6" stroke="#297ea6"></path><path d="M849.1 524L787.1 460L764.2 512Z" fill="#00101c" stroke="#00101c"></path><path d="M774.1 72L770.2 110L812.1 67Z" fill="#112e42" stroke="#112e42"></path><path d="M774.1 72L748.2 56L716.2 85Z" fill="#081a28" stroke="#081a28"></path><path d="M84.9 148L40.9 209L115.9 224Z" fill="#112e42" stroke="#112e42"></path><path d="M0 209L40.9 209L0 187Z" fill="#00101c" stroke="#00101c"></path><path d="M839.1 128L770.2 110L803.1 179Z" fill="#277297" stroke="#277297"></path><path d="M748.2 56L729.1 0L716.2 85Z" fill="#246688" stroke="#246688"></path><path d="M900 355L863.1 303L834.1 381Z" fill="#00101c" stroke="#00101c"></path><path d="M882.1 124L839.1 128L900 146Z" fill="#112e42" stroke="#112e42"></path><path d="M0 433L131.9 452L72.9 385Z" fill="#205a7a" stroke="#205a7a"></path><path d="M153.8 600L75.9 610L253.6 600Z" fill="#277297" stroke="#277297"></path><path d="M372.5 -10L163.8 0L268.8 0Z" fill="#277297" stroke="#277297"></path><path d="M268.8 0L163.8 0L203.7 46Z" fill="#297ea6" stroke="#297ea6"></path><path d="M117.9 89L66.9 97L95.9 140Z" fill="#19435d" stroke="#19435d"></path><path d="M678.2 600L786.1 600L704.2 595Z" fill="#205a7a" stroke="#205a7a"></path><path d="M704.2 595L786.1 600L728.1 558Z" fill="#205a7a" stroke="#205a7a"></path><path d="M462.5 614L786.1 600L678.2 600Z" fill="#081a28" stroke="#081a28"></path><path d="M772.2 0L729.1 0L748.2 56Z" fill="#297ea6" stroke="#297ea6"></path><path d="M668.2 0L729.1 0L372.5 -10Z" fill="#297ea6" stroke="#297ea6"></path><path d="M163.8 0L131.8 18L203.7 46Z" fill="#297ea6" stroke="#297ea6"></path><path d="M0 259L30.9 331L56.9 298Z" fill="#15384f" stroke="#15384f"></path><path d="M30.9 331L0 379L72.9 385Z" fill="#1d4e6b" stroke="#1d4e6b"></path><path d="M58.9 91L66.9 97L117.9 89Z" fill="#277297" stroke="#277297"></path><path d="M0 256L0 259L56.9 298Z" fill="#00101c" stroke="#00101c"></path><path d="M0 344L0 379L30.9 331Z" fill="#246688" stroke="#246688"></path><path d="M900 247L803.1 179L847.1 265Z" fill="#112e42" stroke="#112e42"></path><path d="M774.1 72L772.2 0L748.2 56Z" fill="#112e42" stroke="#112e42"></path><path d="M462.5 614L800.1 600L786.1 600Z" fill="#15384f" stroke="#15384f"></path><path d="M786.1 600L829.1 581L764.2 512Z" fill="#277297" stroke="#277297"></path><path d="M163.8 0L141.9 0L131.8 18Z" fill="#1d4e6b" stroke="#1d4e6b"></path><path d="M131.8 18L58.9 91L117.9 89Z" fill="#297ea6" stroke="#297ea6"></path><path d="M372.5 -10L141.9 0L163.8 0Z" fill="#081a28" stroke="#081a28"></path><path d="M0 256L56.9 298L40.9 209Z" fill="#081a28" stroke="#081a28"></path><path d="M0 209L0 256L40.9 209Z" fill="#15384f" stroke="#15384f"></path><path d="M829.1 581L849.1 524L764.2 512Z" fill="#19435d" stroke="#19435d"></path><path d="M849.1 399L900 355L834.1 381Z" fill="#15384f" stroke="#15384f"></path><path d="M0 259L-7.1 367L0 344Z" fill="#205a7a" stroke="#205a7a"></path><path d="M0 344L-7.1 367L0 379Z" fill="#15384f" stroke="#15384f"></path><path d="M0 379L0 433L72.9 385Z" fill="#15384f" stroke="#15384f"></path><path d="M-14.1 139L-7.1 367L0 259Z" fill="#081a28" stroke="#081a28"></path><path d="M0 65L58.9 91L0 39Z" fill="#246688" stroke="#246688"></path><path d="M66.9 97L-14.1 139L84.9 148Z" fill="#00101c" stroke="#00101c"></path><path d="M-7.1 367L0 433L0 379Z" fill="#19435d" stroke="#19435d"></path><path d="M839.1 128L812.1 67L770.2 110Z" fill="#081a28" stroke="#081a28"></path><path d="M906.1 373L900 355L849.1 399Z" fill="#081a28" stroke="#081a28"></path><path d="M863.1 303L900 250L847.1 265Z" fill="#15384f" stroke="#15384f"></path><path d="M0 187L40.9 209L84.9 148Z" fill="#15384f" stroke="#15384f"></path><path d="M0 256L-14.1 139L0 259Z" fill="#205a7a" stroke="#205a7a"></path><path d="M22.9 532L104.9 600L115.9 499Z" fill="#19435d" stroke="#19435d"></path><path d="M104.9 600L75.9 610L153.8 600Z" fill="#205a7a" stroke="#205a7a"></path><path d="M800.1 600L829.1 581L786.1 600Z" fill="#246688" stroke="#246688"></path><path d="M900 456L900 405L849.1 399Z" fill="#246688" stroke="#246688"></path><path d="M909.1 391L900 405L900 456Z" fill="#19435d" stroke="#19435d"></path><path d="M0 479L22.9 532L115.9 499Z" fill="#15384f" stroke="#15384f"></path><path d="M882.1 124L826.1 71L839.1 128Z" fill="#081a28" stroke="#081a28"></path><path d="M839.1 128L826.1 71L812.1 67Z" fill="#0c2435" stroke="#0c2435"></path><path d="M812.1 67L772.2 0L774.1 72Z" fill="#15384f" stroke="#15384f"></path><path d="M-14.1 139L0 187L84.9 148Z" fill="#246688" stroke="#246688"></path><path d="M0 209L-14.1 139L0 256Z" fill="#081a28" stroke="#081a28"></path><path d="M-7.1 367L0 479L0 433Z" fill="#1d4e6b" stroke="#1d4e6b"></path><path d="M0 433L0 479L115.9 499Z" fill="#0c2435" stroke="#0c2435"></path><path d="M900 355L900 250L863.1 303Z" fill="#1d4e6b" stroke="#1d4e6b"></path><path d="M900 250L900 248L847.1 265Z" fill="#081a28" stroke="#081a28"></path><path d="M900 405L906.1 373L849.1 399Z" fill="#297ea6" stroke="#297ea6"></path><path d="M900 355L906.1 373L900 250Z" fill="#19435d" stroke="#19435d"></path><path d="M900 250L909.1 391L900 248Z" fill="#205a7a" stroke="#205a7a"></path><path d="M909.1 391L900 247L900 248Z" fill="#1d4e6b" stroke="#1d4e6b"></path><path d="M900 248L900 247L847.1 265Z" fill="#277297" stroke="#277297"></path><path d="M868.1 0L772.2 0L812.1 67Z" fill="#081a28" stroke="#081a28"></path><path d="M729.1 0L772.2 0L372.5 -10Z" fill="#0c2435" stroke="#0c2435"></path><path d="M900 405L909.1 391L906.1 373Z" fill="#1d4e6b" stroke="#1d4e6b"></path><path d="M906.1 373L909.1 391L900 250Z" fill="#277297" stroke="#277297"></path><path d="M900 456L787.1 460L900 466Z" fill="#1d4e6b" stroke="#1d4e6b"></path><path d="M900 466L787.1 460L849.1 524Z" fill="#112e42" stroke="#112e42"></path><path d="M900 507L900 466L849.1 524Z" fill="#081a28" stroke="#081a28"></path><path d="M900 456L900 466L909.1 391Z" fill="#112e42" stroke="#112e42"></path><path d="M0 539L12.9 558L22.9 532Z" fill="#246688" stroke="#246688"></path><path d="M22.9 532L12.9 558L75.9 610Z" fill="#205a7a" stroke="#205a7a"></path><path d="M900 146L839.1 128L803.1 179Z" fill="#297ea6" stroke="#297ea6"></path><path d="M826.1 71L868.1 0L812.1 67Z" fill="#246688" stroke="#246688"></path><path d="M0 479L0 539L22.9 532Z" fill="#1d4e6b" stroke="#1d4e6b"></path><path d="M-7.1 367L0 539L0 479Z" fill="#246688" stroke="#246688"></path><path d="M900 600L900 507L849.1 524Z" fill="#205a7a" stroke="#205a7a"></path><path d="M900 466L900 507L909.1 391Z" fill="#1d4e6b" stroke="#1d4e6b"></path><path d="M900 247L900 146L803.1 179Z" fill="#00101c" stroke="#00101c"></path><path d="M909.1 391L900 146L900 247Z" fill="#277297" stroke="#277297"></path><path d="M0 65L-14.1 139L58.9 91Z" fill="#0c2435" stroke="#0c2435"></path><path d="M58.9 91L-14.1 139L66.9 97Z" fill="#1d4e6b" stroke="#1d4e6b"></path><path d="M0 187L-14.1 139L0 209Z" fill="#19435d" stroke="#19435d"></path><path d="M909.1 391L900 140L900 146Z" fill="#15384f" stroke="#15384f"></path><path d="M900 146L900 140L882.1 124Z" fill="#112e42" stroke="#112e42"></path><path d="M882.1 124L900 89L826.1 71Z" fill="#1d4e6b" stroke="#1d4e6b"></path><path d="M0 600L14.9 600L12.9 558Z" fill="#246688" stroke="#246688"></path><path d="M12.9 558L14.9 600L75.9 610Z" fill="#277297" stroke="#277297"></path><path d="M38.9 0L58.9 91L131.8 18Z" fill="#205a7a" stroke="#205a7a"></path><path d="M-7.1 367L0 600L0 539Z" fill="#246688" stroke="#246688"></path><path d="M0 539L0 600L12.9 558Z" fill="#081a28" stroke="#081a28"></path><path d="M14.9 600L0 600L75.9 610Z" fill="#19435d" stroke="#19435d"></path><path d="M-14.1 139L0 600L-7.1 367Z" fill="#19435d" stroke="#19435d"></path><path d="M909.1 391L900 89L900 140Z" fill="#112e42" stroke="#112e42"></path><path d="M900 140L900 89L882.1 124Z" fill="#15384f" stroke="#15384f"></path><path d="M372.5 -10L38.9 0L141.9 0Z" fill="#112e42" stroke="#112e42"></path><path d="M141.9 0L38.9 0L131.8 18Z" fill="#081a28" stroke="#081a28"></path><path d="M38.9 0L0 39L58.9 91Z" fill="#112e42" stroke="#112e42"></path><path d="M0 65L0 39L-14.1 139Z" fill="#19435d" stroke="#19435d"></path><path d="M800.1 600L900 600L829.1 581Z" fill="#246688" stroke="#246688"></path><path d="M829.1 581L900 600L849.1 524Z" fill="#15384f" stroke="#15384f"></path><path d="M900 507L900 600L909.1 391Z" fill="#081a28" stroke="#081a28"></path><path d="M462.5 614L900 600L800.1 600Z" fill="#297ea6" stroke="#297ea6"></path><path d="M900 89L868.1 0L826.1 71Z" fill="#081a28" stroke="#081a28"></path><path d="M772.2 0L868.1 0L372.5 -10Z" fill="#112e42" stroke="#112e42"></path><path d="M372.5 -10L0 0L38.9 0Z" fill="#205a7a" stroke="#205a7a"></path><path d="M38.9 0L0 0L0 39Z" fill="#246688" stroke="#246688"></path><path d="M0 39L0 0L-14.1 139Z" fill="#112e42" stroke="#112e42"></path><path d="M909.1 391L900 0L900 89Z" fill="#297ea6" stroke="#297ea6"></path><path d="M900 89L900 0L868.1 0Z" fill="#297ea6" stroke="#297ea6"></path><path d="M868.1 0L900 0L372.5 -10Z" fill="#081a28" stroke="#081a28"></path></g></svg>